<?xml version="1.0" encoding="UTF-8"?>
<svg width="512pt" height="512pt" version="1.1" viewBox="0 0 512 512" xmlns="http://www.w3.org/2000/svg">
 <path d="m80.48 471.52h351.04c22.039 0 40-17.961 40-40v-64.316c0-22.781-10.898-44.5-29.16-58.121-31.52-23.281-63.258-40.359-94.602-51.578 22.379-23.059 36.262-54.441 36.262-89.062 0-70.578-57.422-128-128-128s-128 57.422-128 128c0 34.602 13.859 66 36.262 89.062-31.34 11.238-63.078 28.32-94.637 51.621-18.238 13.602-29.141 35.32-29.141 58.102v64.316c0 22.039 17.961 40 40 40zm63.52-303.08c0-61.758 50.238-112 112-112s112 50.238 112 112c0 61.762-50.238 112-112 112s-112-50.238-112-112zm-87.52 198.76c0-17.762 8.4805-34.68 22.68-45.238 33.039-24.398 66.203-41.898 98.68-52.379 21.641 16.762 48.719 26.859 78.16 26.859s56.52-10.102 78.16-26.859c32.48 10.5 65.637 27.98 98.664 52.363 14.219 10.602 22.699 27.5 22.699 45.262v64.316c0 13.238-10.762 24-24 24h-351.04c-13.238 0-24-10.762-24-24z"/>
</svg>
