<?xml version="1.0" encoding="UTF-8"?>
<svg width="512pt" height="512pt" version="1.1" viewBox="0 0 512 512" xmlns="http://www.w3.org/2000/svg">
 <path d="m255.98 477.93c-1.9805 0-3.9609-0.58203-5.6719-1.7461-225.95-153.77-244.31-271.99-235.15-328.78 9.5312-59.051 53.652-96.832 93.145-108.09 74.148-21.223 127.96 27.367 147.68 49.25 19.734-21.879 73.609-70.5 147.75-49.242 39.477 11.254 83.578 49.043 93.102 108.1 9.1562 56.789-9.2227 175.02-235.19 328.76-1.7148 1.1602-3.6953 1.7461-5.6719 1.7461zm-110.68-423.76c-9.9141 0-20.418 1.3672-31.469 4.5312-33.367 9.5078-70.656 41.609-78.777 91.914-8.3281 51.602 9.543 159.49 220.92 305.02 211.39-145.5 229.28-253.4 220.96-305-8.1133-50.309-45.391-82.418-78.734-91.922-80.047-22.93-131.83 48.418-133.99 51.465-1.8906 2.6602-4.9609 4.25-8.2227 4.25h-0.019532c-3.2734-0.007813-6.3438-1.5938-8.2266-4.2695-1.8594-2.6172-40.539-55.984-102.44-55.984z"/>
</svg>
