<?xml version="1.0" encoding="UTF-8"?>
<svg id="Layer_1" xmlns="http://www.w3.org/2000/svg" viewBox="0 0 714 311.53">
  <g>
    <path d="M288.13,172.4c0,97.75-140.86,138.6-141.27,138.72-1.76.52-3.72.56-5.6,0-.41-.12-141.27-40.96-141.27-138.72V40.61c0-3.18,2.45-6.11,6.2-7.02L141.6.31c1.51-.39,3.16-.42,4.79-.02l135.15,33.22c3.77.76,6.56,3.65,6.56,7.1v131.79h.03Z" style="fill: #fff;"/>
    <path d="M197.08,171.71c0,29.28-23.75,53.02-53.02,53.02s-53.01-23.74-53.01-53.02,35.19-58.27,53.01-102.88c19.23,42.49,53.02,73.59,53.02,102.88Z" style="fill: #010101;"/>
    <path d="M144.07,284.57c17.13-5.51,115.45-40.26,115.45-112.82V56.93l-115.45-28.38L28.62,56.93v114.82c0,72.56,98.31,107.31,115.45,112.82h0ZM144.07,67.77,275.04,171.75c0,88.87-128.05,126-128.42,126.11-1.6.47-3.38.51-5.09,0-.37-.11-128.42-37.24-128.42-126.11V51.94c0-2.89,2.23-5.55,5.64-6.38l123.09-30.26c1.37-.35,2.88-.38,4.36-.02l122.87,30.2c3.43.69,5.97,3.32,5.97,6.46v119.81h.03Z" style="fill: #010101;"/>
  </g>
  <g>
    <path d="M323.77,154.64v21.74c0,4.12.23,7.17.7,9.17.46,2,1.32,3.64,2.57,4.93,1.09,1.13,2.35,1.97,3.78,2.51,1.43.54,3.32.88,5.66,1v1.39h-38.69v-1.39c2.34-.12,4.23-.45,5.66-1,1.43-.54,2.69-1.38,3.78-2.51,1.29-1.29,2.16-2.93,2.6-4.9.44-1.98.67-5.04.67-9.2v-44.62c0-3.47-.15-6.15-.45-8.02s-.82-3.4-1.54-4.57c-1.05-1.61-2.38-2.82-4-3.6-1.62-.79-3.71-1.26-6.3-1.42h-.42v-1.39h36.51c6.38,0,11.08.32,14.11.97,3.03.65,5.79,1.94,8.29,3.88,5.73,4.36,8.6,10.17,8.6,17.44s-2.91,12.8-8.72,16.23c-3.03,1.78-6.7,2.85-11.02,3.21-1.37.12-4.68.18-9.93.18h-11.87ZM323.77,152.7h5.93c4,0,7.07-.29,9.23-.88,2.16-.58,4.09-1.67,5.78-3.24,3.96-3.59,5.93-8.38,5.93-14.35,0-3.31-.58-6.35-1.73-9.11-1.15-2.76-2.8-5.01-4.93-6.75-2.46-2.06-5.39-3.27-8.78-3.63-.93-.08-3.05-.12-6.36-.12h-5.09v38.08Z" style="fill: #231f20;"/>
    <path d="M405.54,196.47c-.53-2.46-.79-4.98-.79-7.56-5.05,5.04-11.02,7.56-17.92,7.56-5.05,0-9.1-1.23-12.17-3.69-2.99-2.42-4.48-5.85-4.48-10.28v-21.04l-.06-4.6c0-2.74-.16-4.74-.48-5.99-.32-1.25-.93-2.32-1.82-3.21-1.17-1.09-3.27-1.89-6.3-2.42v-1.33h17.8v30.7c0,4.32.15,7.52.45,9.6.3,2.08.86,3.78,1.66,5.12.89,1.37,2.15,2.45,3.8,3.24s3.5,1.18,5.56,1.18c2.25,0,4.37-.44,6.34-1.33,1.97-.89,3.52-2.1,4.65-3.63,1.17-1.57,1.94-3.39,2.33-5.44s.57-5.44.57-10.16v-11.85l-.06-4.48c0-2.74-.15-4.74-.45-5.99-.3-1.25-.92-2.32-1.85-3.21-1.13-1.09-3.23-1.89-6.3-2.42v-1.33h17.8v32.84c0,4.15.11,7.07.33,8.74.22,1.67.66,3.03,1.3,4.08.73,1.13,1.57,1.95,2.54,2.45.97.5,2.36.82,4.18.94v1.27l-16.65,2.24Z" style="fill: #231f20;"/>
    <path d="M436.52,152.33c1.45-2.54,3.09-4.46,4.9-5.75,3.35-2.38,7.16-3.57,11.44-3.57,2.62,0,4.62.59,5.99,1.75,1.25,1.05,1.88,2.34,1.88,3.87,0,1.13-.37,2.06-1.12,2.78-.75.73-1.71,1.09-2.88,1.09-1.37,0-2.56-.56-3.57-1.69l-1.88-2.06c-1.49-1.57-3.25-2.36-5.27-2.36-2.75,0-4.88,1.77-6.42,5.32-1.53,3.55-2.3,8.49-2.3,14.82v11.31l.06,4.6c0,2.74.16,4.75.48,6.02.32,1.27.95,2.33,1.88,3.17,1.13,1.09,3.21,1.92,6.24,2.48v1.27h-26.76v-1.27c2.42-.32,4.16-.77,5.21-1.35,1.05-.58,1.9-1.58,2.54-2.98.44-.92.76-2.32.94-4.19.18-1.87.27-4.57.27-8.1v-14.88c0-4.14-.1-7.04-.3-8.71-.2-1.67-.65-3.02-1.33-4.07-.69-1.12-1.51-1.94-2.48-2.44-.97-.5-2.36-.81-4.18-.93v-1.27l15.61-2.18c.69,3.62,1.04,6.73,1.04,9.32Z" style="fill: #231f20;"/>
    <path d="M468.95,162.45c-.16,1.98-.24,3.41-.24,4.3,0,3.51.51,6.94,1.54,10.29,1.03,3.35,2.42,6.14,4.19,8.36,1.81,2.26,4.05,4.04,6.73,5.33,2.68,1.29,5.48,1.94,8.42,1.94,2.17,0,4.23-.36,6.18-1.09s3.57-1.74,4.86-3.03c1.45-1.41,2.7-3.67,3.74-6.78l1.27.42c-1.05,4.72-3.3,8.29-6.75,10.69-3.45,2.4-8.04,3.6-13.77,3.6-4.96,0-9.22-.79-12.78-2.36-3.55-1.57-6.56-4-9.02-7.27-3.43-4.56-5.15-10.17-5.15-16.83,0-9.08,3.25-16.21,9.75-21.37,4.72-3.75,10.11-5.63,16.17-5.63,3.23,0,6.22.58,8.96,1.73,2.74,1.15,5.07,2.82,6.96,5,2.95,3.39,4.42,7.63,4.42,12.71h-35.48ZM495.35,160.09c-.28-4.04-1.02-7.14-2.23-9.32-1.08-1.98-2.53-3.54-4.34-4.69-1.81-1.15-3.74-1.73-5.79-1.73-3.46,0-6.48,1.49-9.07,4.48-2.59,2.99-4.13,6.74-4.61,11.26h26.04Z" style="fill: #231f20;"/>
    <path d="M539.83,114.62c-2.54,0-5.27.08-8.17.24-6.22.32-10.85,1.11-13.9,2.36-3.05,1.25-5.56,3.41-7.54,6.48-1.82,2.83-3.21,6.66-4.18,11.5l-1.39-.12,1.09-22.34h81.92l1.09,22.34-1.39.12c-1.09-5.61-2.8-9.86-5.12-12.75-2.32-2.89-5.7-4.95-10.14-6.21-3.75-1.09-10.11-1.63-19.07-1.63v61.76c0,4.12.23,7.17.7,9.17.46,2,1.32,3.64,2.57,4.93,1.13,1.17,2.41,2.02,3.84,2.54,1.43.53,3.3.85,5.6.97v1.39h-38.69v-1.39c2.34-.12,4.23-.44,5.66-.97,1.43-.52,2.71-1.37,3.84-2.54,1.25-1.29,2.11-2.93,2.57-4.9.46-1.98.7-5.04.7-9.2v-61.76Z" style="fill: #231f20;"/>
    <path d="M597.56,162.45c-.16,1.98-.24,3.41-.24,4.3,0,3.51.51,6.94,1.54,10.29,1.03,3.35,2.42,6.14,4.19,8.36,1.81,2.26,4.05,4.04,6.73,5.33,2.68,1.29,5.48,1.94,8.42,1.94,2.17,0,4.23-.36,6.18-1.09s3.57-1.74,4.86-3.03c1.45-1.41,2.7-3.67,3.74-6.78l1.27.42c-1.05,4.72-3.3,8.29-6.75,10.69-3.45,2.4-8.04,3.6-13.77,3.6-4.96,0-9.22-.79-12.78-2.36-3.55-1.57-6.56-4-9.02-7.27-3.43-4.56-5.15-10.17-5.15-16.83,0-9.08,3.25-16.21,9.75-21.37,4.72-3.75,10.11-5.63,16.17-5.63,3.23,0,6.22.58,8.96,1.73,2.74,1.15,5.07,2.82,6.96,5,2.95,3.39,4.42,7.63,4.42,12.71h-35.48ZM623.96,160.09c-.28-4.04-1.02-7.14-2.23-9.32-1.08-1.98-2.53-3.54-4.34-4.69-1.81-1.15-3.74-1.73-5.79-1.73-3.46,0-6.48,1.49-9.07,4.48-2.59,2.99-4.13,6.74-4.61,11.26h26.04Z" style="fill: #231f20;"/>
    <path d="M679.7,183.94l1.21.42c-1.41,4.28-3.57,7.37-6.48,9.26s-6.9,2.85-11.99,2.85c-8.15,0-14.55-2.42-19.19-7.27-4.52-4.76-6.78-10.78-6.78-18.04,0-3.55.62-7.06,1.88-10.54,1.25-3.47,2.97-6.44,5.15-8.9,2.46-2.83,5.48-4.98,9.05-6.48,3.57-1.49,7.48-2.24,11.72-2.24,5.85,0,10.43,1.31,13.74,3.94,2.02,1.62,3.03,3.39,3.03,5.33,0,1.29-.42,2.37-1.27,3.24-.85.87-1.88,1.3-3.09,1.3-2.62,0-4.56-1.92-5.81-5.75-.56-1.78-1.02-2.99-1.36-3.63-.34-.65-.84-1.21-1.48-1.7-1.25-.93-2.78-1.39-4.59-1.39-2.38,0-4.57.67-6.58,2-1.77,1.17-3.27,2.63-4.5,4.39-1.23,1.76-2.3,3.97-3.23,6.63-1.41,4.08-2.11,8.07-2.11,11.99,0,3.59.64,7.1,1.93,10.54,1.29,3.43,3.04,6.3,5.26,8.6,3.46,3.63,7.54,5.45,12.21,5.45,3.87,0,7.07-1.23,9.61-3.69,1.29-1.29,2.52-3.39,3.69-6.3Z" style="fill: #231f20;"/>
    <path d="M695.48,143.92h15.38v2.3h-15.38v35.24c0,4.24.72,7.27,2.17,9.08.76,1.01,1.77,1.8,3.02,2.36,1.25.57,2.59.85,4.04.85,1.81,0,3.32-.37,4.53-1.12,1.21-.75,2.54-2.11,3.98-4.09l.91.79c-1.33,2.42-3.2,4.22-5.6,5.39-2.4,1.17-5.4,1.76-8.99,1.76-4.76,0-8.23-.93-10.41-2.79-1.17-.97-1.94-2.13-2.3-3.48-.36-1.35-.54-3.78-.54-7.3v-36.69h-6.48v-.97c2.62-.85,5.05-2.48,7.27-4.9,1.34-1.49,2.42-2.98,3.23-4.45.81-1.47,1.58-3.38,2.32-5.72l.61-2h2.26v15.74Z" style="fill: #231f20;"/>
  </g>
  <rect x="438.03" y="210.97" width="132.76" height="43.1" style="fill: #231f20;"/>
  <g>
    <path d="M460.97,216.61c1.86-.27,4.43-.43,7.79-.32,3.74.13,6.44.94,8.27,2.56,1.71,1.49,2.72,3.88,2.63,6.52-.1,2.9-1.11,5.17-2.8,6.67-2.12,1.9-5.26,2.72-8.58,2.6-.71-.02-1.34-.09-1.84-.15l-.36,10.24-6.09-.21.97-27.92ZM466.61,229.66c.46.14,1,.16,1.76.19,3.19.11,5.1-1.59,5.2-4.4.09-2.56-1.41-4.29-4.43-4.4-1.05-.04-1.81.02-2.23.13l-.3,8.48Z" style="fill: #fff;"/>
    <path d="M493.67,216.6c1.94-.27,4.76-.42,7.79-.32,3.82.13,6.65.82,8.57,2.53,1.67,1.45,2.4,3.45,2.31,6.01-.12,3.4-2.43,5.88-5.07,6.8v.13c1.94.87,2.93,2.75,3.5,5.5.64,3.22,1.36,6.86,1.87,7.97l-6.3-.22c-.39-.81-.98-3.31-1.57-6.7-.55-3.55-1.65-4.55-4.04-4.68l-1.55-.05-.39,11.17-6.09-.21.97-27.92ZM499.33,229.07l2.06.07c2.94.1,4.72-1.56,4.81-4.04.09-2.52-1.37-4.04-4.18-4.14-1.22-.04-2.02.01-2.4.08l-.28,8.02Z" style="fill: #fff;"/>
    <path d="M549.53,230.77c-.34,9.7-5.6,14.72-12.99,14.47-7.81-.27-11.78-6.88-11.5-14.86.29-8.27,5.21-14.53,12.94-14.26,8.14.28,11.81,7.22,11.55,14.65ZM531.51,230.52c-.2,5.79,1.85,9.61,5.5,9.73,3.69.13,5.85-3.91,6.05-9.5.18-5.04-1.6-9.51-5.42-9.65-3.69-.13-5.93,3.74-6.13,9.41Z" style="fill: #fff;"/>
  </g>
</svg>