<?xml version="1.0" encoding="UTF-8"?>
<svg width="512pt" height="512pt" version="1.1" viewBox="0 0 512 512" xmlns="http://www.w3.org/2000/svg">
 <path d="m450.24 427.68-102.4-102.4c34.812-42.793 45.121-100.5 27.285-152.7s-61.305-91.531-115.02-104.07c-53.723-12.543-110.11 3.4727-149.22 42.375-38.902 39.109-54.918 95.5-42.375 149.22 12.543 53.719 51.875 97.188 104.07 115.02s109.91 7.5273 152.7-27.285l102.4 102.4c4.1211 3.5273 9.7461 4.7305 14.945 3.1914 5.1992-1.5391 9.2656-5.6055 10.805-10.805 1.5391-5.1992 0.33594-10.824-3.1914-14.945zm-316.8-113.12c-24.016-24-37.516-56.559-37.52-90.512-0.007813-33.949 13.473-66.516 37.48-90.527 24.004-24.008 56.566-37.5 90.52-37.5 33.949 0 66.512 13.492 90.52 37.5 24.004 24.012 37.484 56.578 37.48 90.527-0.007813 33.953-13.508 66.512-37.523 90.512-23.895 24.188-56.48 37.797-90.477 37.797-34 0-66.586-13.609-90.48-37.797z"/>
</svg>
