<?xml version="1.0" encoding="UTF-8"?>
<svg width="512pt" height="512pt" version="1.1" viewBox="0 0 512 512" xmlns="http://www.w3.org/2000/svg">
 <path d="m441.61 98.703h-90.699c-5.8438-29.527-25.102-54.656-52.094-67.977-26.992-13.324-58.648-13.324-85.641 0-26.992 13.32-46.25 38.449-52.094 67.977h-90.699c-5.8906 0-10.668 4.7773-10.668 10.668v371.23c0 2.8281 1.1211 5.543 3.125 7.543 2 2 4.7109 3.125 7.543 3.1211h371.23c2.832 0.003907 5.543-1.1211 7.543-3.1211 2.0039-2 3.125-4.7148 3.125-7.543v-371.23c0-5.8906-4.7773-10.668-10.668-10.668zm-185.61-56.637c16.719 0.03125 32.953 5.6094 46.16 15.859 13.207 10.246 22.641 24.59 26.816 40.777h-145.95c4.1758-16.188 13.609-30.531 26.816-40.777 13.207-10.25 29.441-15.828 46.16-15.859zm174.95 427.87h-349.9v-349.9h78.168v44.027c0 5.8906 4.7773 10.668 10.668 10.668s10.664-4.7773 10.664-10.668v-44.027h150.9v44.027c0 5.8906 4.7734 10.668 10.664 10.668s10.668-4.7773 10.668-10.668v-44.027h78.168z"/>
</svg>
